<?xml version="1.0" encoding="iso-8859-1"?>
<!-- Generator: Adobe Illustrator 18.0.0, SVG Export Plug-In . SVG Version: 6.00 Build 0)  -->
<!DOCTYPE svg PUBLIC "-//W3C//DTD SVG 1.1//EN" "http://www.w3.org/Graphics/SVG/1.1/DTD/svg11.dtd">
<svg version="1.1" id="Capa_1" xmlns="http://www.w3.org/2000/svg" xmlns:xlink="http://www.w3.org/1999/xlink" x="0px" y="0px"
	 viewBox="0 0 197.957 197.957" style="enable-background:new 0 0 197.957 197.957;" xml:space="preserve">
<path d="M195.76,58.556l-35.178-35.177c-2.93-2.929-7.678-2.929-10.607,0c-2.929,2.929-2.929,7.678,0,10.606l21.999,21.999v84.452
	c0,7.334-5.966,13.301-13.299,13.301c-7.334,0-13.301-5.967-13.301-13.301v-20.657c0-13.008-8.825-23.988-20.801-27.284v-45.13
	V33.732c0-15.451-12.57-28.021-28.022-28.021H45.324c-15.452,0-28.022,12.57-28.022,28.021v13.633v50.811v79.07H7.5
	c-4.142,0-7.5,3.358-7.5,7.5c0,4.142,3.358,7.5,7.5,7.5h126.874c4.143,0,7.5-3.358,7.5-7.5c0-4.142-3.357-7.5-7.5-7.5h-9.801
	v-68.441c3.499,2.398,5.801,6.421,5.801,10.975v20.657c0,15.605,12.695,28.301,28.301,28.301c15.605,0,28.299-12.696,28.299-28.301
	V70.504c1.088,0.57,2.285,0.855,3.482,0.855c1.919,0,3.839-0.732,5.304-2.197C198.689,66.233,198.689,61.485,195.76,58.556z
	 M32.302,54.865h77.272v35.811H32.302V54.865z M45.324,20.711h51.227c7.18,0,13.022,5.841,13.022,13.022v6.133H32.302v-6.133
	C32.302,26.552,38.143,20.711,45.324,20.711z M32.302,177.246v-71.57h77.272v71.57H32.302z"/>
<g>
</g>
<g>
</g>
<g>
</g>
<g>
</g>
<g>
</g>
<g>
</g>
<g>
</g>
<g>
</g>
<g>
</g>
<g>
</g>
<g>
</g>
<g>
</g>
<g>
</g>
<g>
</g>
<g>
</g>
</svg>
